<svg width="708" height="540" viewBox="0 0 708 540" fill="none" xmlns="http://www.w3.org/2000/svg">
<g clip-path="url(#clip0_17_19)">
<path d="M176.681 308.877C176.619 307.96 176.377 307.064 175.968 306.24C175.56 305.417 174.993 304.682 174.301 304.077L163.17 294.377C161.863 293.236 160.178 292.621 158.443 292.653C156.708 292.684 155.046 293.359 153.781 294.547C153.611 294.704 153.45 294.871 153.301 295.047L124.241 328.367L121.061 332.007L72.4404 387.757C71.2244 389.159 70.6132 390.986 70.7407 392.838C70.8682 394.689 71.7239 396.415 73.1206 397.637L84.2407 407.337C85.6409 408.556 87.4671 409.17 89.3191 409.044C91.1711 408.918 92.8977 408.064 94.1206 406.667L121.061 375.777L145.341 347.927L174.971 313.957C175.576 313.265 176.039 312.46 176.333 311.588C176.626 310.716 176.744 309.795 176.681 308.877Z" fill="#2F82FF"/>
<path d="M352.94 246.027L346.18 232.907C345.326 231.261 343.854 230.02 342.087 229.456C340.319 228.892 338.401 229.05 336.75 229.897L281.68 258.287L247.06 276.137L227.41 286.267C226.897 286.531 226.419 286.86 225.99 287.247C225.037 288.076 224.331 289.153 223.95 290.357C223.667 291.233 223.562 292.156 223.639 293.072C223.716 293.989 223.975 294.881 224.4 295.697L227.04 300.827L231.16 308.817C231.58 309.635 232.158 310.362 232.86 310.955C233.562 311.549 234.374 311.998 235.25 312.277C235.946 312.495 236.671 312.606 237.4 312.607C238.511 312.608 239.605 312.34 240.591 311.827L263.93 299.797L294.45 284.057L349.93 255.457C351.577 254.602 352.817 253.13 353.381 251.363C353.945 249.596 353.787 247.678 352.94 246.027V246.027Z" fill="#2F82FF"/>
<path d="M294.75 284.687L294.45 284.057L282.63 259.707C281.794 258.052 280.339 256.794 278.58 256.207C277.701 255.914 276.773 255.799 275.849 255.87C274.925 255.94 274.025 256.194 273.2 256.617L244.36 274.097L225.16 285.737C225.014 285.811 224.88 285.905 224.761 286.017C223.66 287.007 223.07 289.547 222.591 291.627C222.42 292.347 222.281 292.977 222.14 293.387C222.091 293.557 222.031 293.737 221.99 293.917C221.59 295.534 221.782 297.24 222.531 298.727L224.89 303.437L229.15 311.917C229.736 313.08 230.634 314.058 231.743 314.741C232.851 315.424 234.128 315.786 235.43 315.787C236.501 315.786 237.556 315.532 238.51 315.047L265.37 304.447L291.63 294.077C293.287 293.243 294.545 291.787 295.13 290.027C295.715 288.267 295.578 286.347 294.75 284.687H294.75Z" fill="#2F2E41"/>
<path d="M199.483 247.044C229.04 247.044 253.002 223.083 253.002 193.525C253.002 163.967 229.04 140.006 199.483 140.006C169.925 140.006 145.963 163.967 145.963 193.525C145.963 223.083 169.925 247.044 199.483 247.044Z" fill="#2F82FF"/>
<path d="M201.031 407.067C200.979 405.707 200.53 404.393 199.739 403.285C198.948 402.178 197.85 401.327 196.581 400.837C195.775 400.519 194.917 400.356 194.051 400.357H179.291C177.435 400.359 175.655 401.097 174.343 402.41C173.031 403.722 172.293 405.501 172.291 407.357V532.367C172.293 534.223 173.031 536.002 174.343 537.315C175.655 538.627 177.435 539.365 179.291 539.367H194.051C195.907 539.365 197.686 538.627 198.998 537.315C200.311 536.002 201.049 534.223 201.051 532.367V407.357C201.054 407.26 201.048 407.163 201.031 407.067Z" fill="#2F82FF"/>
<path d="M268.091 462.887C267.888 462.41 267.633 461.957 267.33 461.537L242.17 426.337L221.44 397.347H186.08L188.58 400.837L193.031 407.067L206.82 426.347L236.37 467.677L243.94 478.257C245.019 479.766 246.653 480.786 248.483 481.091C250.313 481.397 252.19 480.964 253.7 479.887L265.71 471.297C267.001 470.372 267.939 469.037 268.372 467.509C268.804 465.981 268.705 464.351 268.091 462.887ZM195.79 361.467C194.708 359.959 193.072 358.941 191.24 358.637C189.409 358.333 187.531 358.769 186.02 359.847L174.01 368.427C172.502 369.509 171.484 371.146 171.18 372.977C170.877 374.809 171.312 376.686 172.39 378.197L176.79 384.347H212.15L195.79 361.467Z" fill="#2F82FF"/>
<path d="M268.32 463.227C268.249 463.11 268.173 462.997 268.091 462.887C267.162 461.626 265.94 460.61 264.531 459.927L251.32 453.357C247.86 451.637 244.14 452.057 243.031 454.297L236.37 467.677L208.98 522.697C207.86 524.937 209.77 528.157 213.221 529.877L226.431 536.457C227.742 537.127 229.188 537.489 230.661 537.517C232.52 537.517 234.07 536.827 234.721 535.517L268.77 467.117C269.039 466.485 269.138 465.795 269.059 465.113C268.98 464.431 268.726 463.781 268.32 463.227Z" fill="#2F82FF"/>
<path d="M189.21 292.427L186.991 290.247L185.761 289.017L178.701 282.067C177.514 280.899 175.951 280.191 174.29 280.067C174.1 280.057 173.92 280.047 173.73 280.047C173.31 280.057 172.67 279.997 171.92 279.937C169.551 279.737 166.591 279.477 165.56 280.537L151.89 292.357L123 317.327C121.952 318.385 121.272 319.753 121.06 321.227C121.003 321.581 120.977 321.939 120.98 322.297C120.982 322.615 121.009 322.933 121.06 323.247C121.273 324.762 121.979 326.165 123.07 327.237L124.241 328.367L143.1 346.447C144.423 347.746 146.206 348.469 148.06 348.457C148.87 348.456 149.673 348.311 150.431 348.027C151.408 347.666 152.292 347.092 153.02 346.347L185.89 306.437L188.04 303.827L189.281 302.327C190.582 301.004 191.306 299.219 191.293 297.363C191.28 295.506 190.531 293.732 189.21 292.427Z" fill="#2F2E41"/>
<path d="M192.358 213.361L192.303 211.361C196.023 211.257 199.304 211.024 201.769 209.223C202.467 208.684 203.042 208 203.453 207.219C203.864 206.437 204.101 205.576 204.15 204.695C204.193 204.156 204.112 203.615 203.912 203.113C203.712 202.611 203.399 202.162 202.997 201.8C201.361 200.419 198.728 200.866 196.809 201.746L195.154 202.504L198.328 179.314L200.309 179.586L197.61 199.312C200.217 198.546 202.633 198.876 204.288 200.273C204.923 200.828 205.422 201.522 205.745 202.301C206.067 203.08 206.206 203.924 206.148 204.765C206.09 205.95 205.773 207.107 205.221 208.156C204.668 209.205 203.892 210.121 202.948 210.838C199.781 213.153 195.666 213.268 192.358 213.361Z" fill="#2F2E41"/>
<path d="M220.88 181.287H210.108V183.287H220.88V181.287Z" fill="#2F2E41"/>
<path d="M186.88 181.287H176.108V183.287H186.88V181.287Z" fill="#2F2E41"/>
<path d="M194.527 113.347C188.592 89.5579 165.588 71.2921 140.938 71.7465C128.735 72.0889 116.967 76.356 107.38 83.9146C102.547 87.6759 98.3862 92.2285 95.0735 97.3791C91.3585 103.177 89.0258 109.722 87.2046 116.328C83.5247 129.676 81.7903 144.78 72.4518 155.68C68.5796 160.093 63.8052 163.623 58.4514 166.031C53.0976 168.44 47.2891 169.671 41.4185 169.642C35.5039 169.549 29.691 168.089 24.435 165.375C19.179 162.661 14.6228 158.767 11.1232 153.998C4.09387 144.627 0.633179 131.665 4.69418 120.355C6.68698 114.805 10.972 109.562 17.1006 108.636C19.8955 108.258 22.7401 108.705 25.2841 109.923C27.8281 111.141 29.9605 113.076 31.4188 115.49C34.1749 120.326 33.2935 126.779 29.8406 131.044C26.2037 135.537 20.126 136.781 14.7656 134.976C12.246 134.12 10.0305 132.548 8.38977 130.453C7.19107 128.939 5.06647 131.061 6.25285 132.56C8.15415 134.84 10.609 136.594 13.3824 137.653C16.1557 138.713 19.1546 139.043 22.0919 138.611C25.0231 138.168 27.7762 136.928 30.051 135.027C32.3258 133.126 34.0351 130.637 34.9923 127.831C36.0417 125.05 36.317 122.035 35.7888 119.109C35.2607 116.184 33.949 113.456 31.9933 111.216C29.9555 109.001 27.3831 107.345 24.5222 106.407C21.6614 105.47 18.6078 105.283 15.6539 105.863C9.3258 107.203 4.73021 112.408 2.3452 118.175C-0.00488305 124.166 -0.624901 130.698 0.555782 137.024C1.64534 143.129 4.00848 148.937 7.49136 154.068C10.9742 159.199 15.4988 163.539 20.7704 166.805C31.4389 173.356 44.7551 174.257 56.4591 170.05C62.307 167.981 67.6481 164.692 72.1277 160.401C76.9415 155.518 80.6257 149.638 82.9207 143.176C88.1975 129.36 88.9706 113.899 96.4369 100.912C102.949 89.8852 113.222 81.5779 125.368 77.5167C137.442 73.3449 150.659 73.9794 162.279 79.2886C173.833 84.6395 183.139 93.8798 188.572 105.395C189.866 108.201 190.89 111.124 191.629 114.124C192.097 116.001 194.994 115.222 194.527 113.347L194.527 113.347Z" fill="#2F2E41"/>
<path d="M252.371 306.447C251.96 304.867 251.48 303.317 250.931 301.797C247.601 292.503 241.762 284.314 234.06 278.137C233.19 277.427 232.29 276.747 231.36 276.097C226.745 272.842 221.642 270.342 216.241 268.691C216.674 267.147 216.666 265.514 216.22 263.974C215.616 262.033 214.401 260.34 212.756 259.146C211.112 257.952 209.125 257.321 207.093 257.347H194.053C192.016 257.32 190.025 257.952 188.376 259.147C186.726 260.343 185.507 262.04 184.9 263.984C184.455 265.519 184.448 267.148 184.879 268.687C173.932 272.048 164.352 278.831 157.545 288.04C150.738 297.248 147.063 308.396 147.061 319.847V423.52C147.061 430.596 149.75 436.347 153.061 436.347H248.061C248.101 436.347 275.13 436.347 275.17 436.326C278.431 436.219 281.061 430.51 281.061 423.52C281.061 399.585 275.773 365.947 265.575 344.294L254.061 319.847C254.063 315.327 253.495 310.825 252.371 306.447Z" fill="#2F2E41"/>
<path d="M145.561 205.847C138.944 205.847 133.561 197.772 133.561 187.847C133.561 177.922 138.944 169.847 145.561 169.847C152.177 169.847 157.561 177.922 157.561 187.847C157.561 197.772 152.177 205.847 145.561 205.847Z" fill="#3F3D56"/>
<path d="M252.561 205.847C245.944 205.847 240.561 197.772 240.561 187.847C240.561 177.922 245.944 169.847 252.561 169.847C259.177 169.847 264.561 177.922 264.561 187.847C264.561 197.772 259.177 205.847 252.561 205.847Z" fill="#3F3D56"/>
<path d="M255.928 203.032C255.69 203.032 255.455 202.975 255.244 202.866C255.032 202.757 254.849 202.599 254.71 202.406C254.571 202.213 254.48 201.989 254.445 201.753C254.409 201.518 254.431 201.277 254.507 201.052C257.373 192.527 258.236 183.455 257.027 174.542C255.818 165.63 252.57 157.116 247.535 149.663C242.501 142.209 235.816 136.017 227.999 131.568C220.183 127.118 211.445 124.531 202.466 124.007C193.487 123.483 184.508 125.037 176.227 128.547C167.946 132.057 160.586 137.43 154.719 144.247C148.852 151.065 144.636 159.143 142.399 167.855C140.162 176.566 139.963 185.676 141.819 194.477C141.9 194.866 141.824 195.271 141.607 195.604C141.389 195.936 141.049 196.169 140.66 196.251C140.272 196.333 139.866 196.257 139.533 196.041C139.2 195.824 138.967 195.485 138.884 195.096C136.931 185.843 137.139 176.265 139.49 167.105C141.842 157.945 146.274 149.451 152.442 142.283C158.61 135.115 166.349 129.466 175.055 125.775C183.762 122.084 193.202 120.451 202.643 121.002C212.084 121.553 221.27 124.273 229.488 128.952C237.706 133.631 244.735 140.142 250.027 147.979C255.32 155.816 258.733 164.768 260.003 174.139C261.273 183.51 260.365 193.048 257.349 202.011C257.249 202.308 257.058 202.567 256.803 202.75C256.548 202.933 256.242 203.032 255.928 203.032Z" fill="#3F3D56"/>
<path d="M176.598 151.849C174.478 154.742 175.523 158.64 177.756 161.135C180.661 164.38 185.295 164.585 189.318 163.982C193.832 163.306 198.62 161.191 203.191 162.617C207.086 163.832 209.865 167.365 213.912 168.252C217.501 169.039 221.793 167.997 223.051 164.172C223.655 162.334 220.759 161.546 220.158 163.374C219.344 165.849 215.829 165.8 213.816 165.115C210.59 164.016 208.103 161.344 204.931 160.067C201.192 158.562 197.135 159.242 193.328 160.099C189.74 160.907 185.61 162.105 182.035 160.596C179.39 159.479 177.285 155.961 179.188 153.363C180.33 151.804 177.728 150.306 176.598 151.849H176.598Z" fill="#2F2E41"/>
<path d="M320.541 539.347H104.541C104.276 539.347 104.021 539.242 103.834 539.054C103.646 538.867 103.541 538.612 103.541 538.347C103.541 538.082 103.646 537.828 103.834 537.64C104.021 537.452 104.276 537.347 104.541 537.347H320.541C320.806 537.347 321.061 537.452 321.248 537.64C321.436 537.828 321.541 538.082 321.541 538.347C321.541 538.612 321.436 538.867 321.248 539.054C321.061 539.242 320.806 539.347 320.541 539.347Z" fill="#3F3D56"/>
<path d="M705.35 232.442H468.02C467.778 232.444 467.538 232.398 467.314 232.306C467.09 232.215 466.886 232.08 466.715 231.909C466.543 231.739 466.407 231.536 466.314 231.312C466.221 231.089 466.173 230.849 466.173 230.607C466.173 230.365 466.221 230.126 466.314 229.902C466.407 229.679 466.543 229.476 466.715 229.306C466.886 229.135 467.09 229 467.314 228.909C467.538 228.817 467.778 228.771 468.02 228.772H705.35C705.592 228.771 705.832 228.817 706.056 228.909C706.28 229 706.484 229.135 706.655 229.306C706.827 229.476 706.963 229.679 707.056 229.902C707.149 230.126 707.197 230.365 707.197 230.607C707.197 230.849 707.149 231.089 707.056 231.312C706.963 231.536 706.827 231.739 706.655 231.909C706.484 232.08 706.28 232.215 706.056 232.306C705.832 232.398 705.592 232.444 705.35 232.442Z" fill="#E6E6E6"/>
<path d="M604.46 131.19H512.17C507.013 131.184 502.069 129.133 498.423 125.487C494.777 121.84 492.726 116.896 492.72 111.74V19.4497C492.726 14.2931 494.777 9.34934 498.423 5.70308C502.069 2.05682 507.013 0.00581822 512.17 4.57764e-05H604.46C609.616 0.00581822 614.56 2.05682 618.207 5.70308C621.853 9.34934 623.904 14.2931 623.91 19.4497V111.74C623.904 116.896 621.853 121.84 618.207 125.487C614.56 129.133 609.616 131.184 604.46 131.19Z" fill="#2F82FF"/>
<path opacity="0.1" d="M661.2 173.99H568.91C563.754 173.984 558.81 171.933 555.163 168.287C551.517 164.64 549.466 159.697 549.46 154.54V62.25C549.466 57.0933 551.517 52.1494 555.163 48.5031C558.81 44.8567 563.753 42.8056 568.91 42.7999H661.2C666.357 42.8056 671.301 44.8567 674.947 48.5031C678.593 52.1494 680.644 57.0933 680.65 62.25V154.54C680.644 159.697 678.593 164.64 674.947 168.287C671.3 171.933 666.357 173.984 661.2 173.99Z" fill="black"/>
<path d="M502.061 285.347C501.795 285.347 501.541 285.242 501.353 285.054C501.166 284.867 501.061 284.612 501.061 284.347V266.347C501.061 266.082 501.166 265.828 501.353 265.64C501.541 265.453 501.795 265.347 502.061 265.347C502.326 265.347 502.58 265.453 502.768 265.64C502.955 265.828 503.061 266.082 503.061 266.347V284.347C503.061 284.612 502.955 284.867 502.768 285.054C502.58 285.242 502.326 285.347 502.061 285.347Z" fill="#CCCCCC"/>
<path d="M583.561 285.347C583.295 285.347 583.041 285.242 582.853 285.054C582.666 284.867 582.561 284.612 582.561 284.347V266.347C582.561 266.082 582.666 265.828 582.853 265.64C583.041 265.453 583.295 265.347 583.561 265.347C583.826 265.347 584.08 265.453 584.268 265.64C584.455 265.828 584.561 266.082 584.561 266.347V284.347C584.561 284.612 584.455 284.867 584.268 285.054C584.08 285.242 583.826 285.347 583.561 285.347Z" fill="#3F3D56"/>
<path d="M590.561 285.347C590.295 285.347 590.041 285.242 589.853 285.054C589.666 284.867 589.561 284.612 589.561 284.347V266.347C589.561 266.082 589.666 265.828 589.853 265.64C590.041 265.453 590.295 265.347 590.561 265.347C590.826 265.347 591.08 265.453 591.268 265.64C591.455 265.828 591.561 266.082 591.561 266.347V284.347C591.561 284.612 591.455 284.867 591.268 285.054C591.08 285.242 590.826 285.347 590.561 285.347Z" fill="#3F3D56"/>
<path d="M516.741 285.673C516.333 285.672 515.933 285.563 515.581 285.358L503.687 277.336C503.664 277.323 503.642 277.309 503.62 277.295C503.291 277.088 503.021 276.8 502.836 276.459C502.651 276.118 502.556 275.735 502.561 275.347C502.558 274.939 502.664 274.538 502.868 274.185C503.072 273.832 503.367 273.54 503.721 273.338L515.521 265.373C515.873 265.156 516.276 265.036 516.689 265.026C517.102 265.017 517.51 265.118 517.871 265.319C518.231 265.52 518.532 265.814 518.741 266.17C518.951 266.526 519.061 266.932 519.061 267.345V283.349C519.059 283.964 518.815 284.554 518.38 284.989C517.945 285.425 517.356 285.67 516.741 285.673ZM516.64 283.663C516.683 283.677 516.729 283.681 516.774 283.674C516.82 283.668 516.863 283.652 516.901 283.626C516.95 283.599 516.991 283.559 517.019 283.51C517.047 283.461 517.062 283.406 517.061 283.349V267.345C517.061 267.289 517.046 267.234 517.018 267.185C516.99 267.137 516.949 267.096 516.901 267.068C516.852 267.04 516.797 267.025 516.741 267.025C516.685 267.025 516.63 267.04 516.581 267.068L504.78 275.033C504.581 275.15 504.561 275.278 504.561 275.347C504.56 275.404 504.574 275.459 504.602 275.508C504.63 275.557 504.671 275.597 504.72 275.624L504.78 275.661L516.64 283.663Z" fill="#CCCCCC"/>
<path d="M670.061 285.347C669.795 285.347 669.541 285.242 669.353 285.054C669.166 284.867 669.061 284.612 669.061 284.347V266.347C669.061 266.082 669.166 265.828 669.353 265.64C669.541 265.453 669.795 265.347 670.061 265.347C670.326 265.347 670.58 265.453 670.768 265.64C670.955 265.828 671.061 266.082 671.061 266.347V284.347C671.061 284.612 670.955 284.867 670.768 285.054C670.58 285.242 670.326 285.347 670.061 285.347Z" fill="#CCCCCC"/>
<path d="M655.362 285.668C654.961 285.668 654.567 285.561 654.221 285.358C653.867 285.157 653.572 284.864 653.368 284.511C653.164 284.158 653.058 283.757 653.061 283.349V267.345C653.061 266.938 653.168 266.538 653.371 266.185C653.575 265.833 653.868 265.54 654.221 265.336C654.573 265.132 654.974 265.025 655.381 265.025C655.788 265.025 656.188 265.133 656.541 265.336L668.46 273.375C668.8 273.578 669.081 273.868 669.274 274.214C669.467 274.56 669.566 274.951 669.561 275.347C669.563 275.748 669.46 276.143 669.263 276.492C669.065 276.841 668.78 277.132 668.435 277.336L656.6 285.321C656.225 285.545 655.798 285.665 655.362 285.668ZM655.061 283.349C655.061 283.405 655.075 283.46 655.103 283.509C655.131 283.558 655.172 283.598 655.22 283.626C655.269 283.654 655.324 283.669 655.38 283.669C655.437 283.669 655.492 283.655 655.54 283.626L667.386 275.632C667.438 275.604 667.48 275.563 667.511 275.513C667.542 275.463 667.559 275.407 667.561 275.348V275.347C667.562 275.291 667.547 275.235 667.519 275.187C667.491 275.138 667.45 275.098 667.401 275.07L655.481 267.031C655.438 267.017 655.392 267.013 655.347 267.019C655.302 267.026 655.259 267.042 655.221 267.068C655.171 267.095 655.13 267.135 655.102 267.184C655.074 267.233 655.06 267.289 655.061 267.345L655.061 283.349Z" fill="#CCCCCC"/>
<path d="M534.061 242.607C540.688 242.607 546.061 237.235 546.061 230.607C546.061 223.98 540.688 218.607 534.061 218.607C527.433 218.607 522.061 223.98 522.061 230.607C522.061 237.235 527.433 242.607 534.061 242.607Z" fill="#3F3D56"/>
</g>
<defs>
<clipPath id="clip0_17_19">
<rect width="707.185" height="539.367" fill="white"/>
</clipPath>
</defs>
</svg>
